<svg xmlns="http://www.w3.org/2000/svg" width="707" xmlns:xlink="http://www.w3.org/1999/xlink" height="600" viewBox="0 0 707 600">
    <defs/>
    <g transform="translate(-182.00,-70.00)">
        <g transform="translate(183.00,285.50)" id="shape1">
            <path stroke-dasharray="11,5,2.5,5" d="M11.0,.0L656.0,.0C662.1,.0,667.0,4.9,667.0,11.0L667.0,273.0C667.0,279.1,662.1,284.0,656.0,284.0L11.0,284.0C4.9,284.0,.0,279.1,.0,273.0L.0,11.0C.0,4.9,4.9,.0,11.0,.0z" fill-rule="nonzero" stroke="#323232" fill="#ffffff"/>
            <text xml:space="preserve" style="fill:#ff00ff;font-family:Microsoft YaHei;font-size:19.00pt">
                <tspan x="563.0" y="30.0">三次握手</tspan>
            </text>
        </g>
        <g transform="translate(290.00,71.00)" id="shape2">
            <path d="M100.0,53.0L100.0,7.0C100.0,3.1,96.9,.0,93.0,.0L7.0,.0C3.1,.0,.0,3.1,.0,7.0L.0,53.0C.0,56.9,3.1,60.0,7.0,60.0L93.0,60.0C96.9,60.0,100.0,56.9,100.0,53.0z" fill-rule="nonzero" stroke="#323232" fill="#83ebdc"/>
            <text xml:space="preserve" style="fill:#191919;font-family:微软雅黑;font-size:10.00pt;font-weight:bold">
                <tspan x="30.5" y="35.5">客户端</tspan>
            </text>
        </g>
        <g transform="translate(567.00,71.00)" id="shape3">
            <path d="M100.0,53.0L100.0,7.0C100.0,3.1,96.9,.0,93.0,.0L7.0,.0C3.1,.0,.0,3.1,.0,7.0L.0,53.0C.0,56.9,3.1,60.0,7.0,60.0L93.0,60.0C96.9,60.0,100.0,56.9,100.0,53.0z" fill-rule="nonzero" stroke="#323232" fill="#8acf57"/>
            <text xml:space="preserve" style="fill:#191919;font-family:微软雅黑;font-size:10.00pt;font-weight:bold">
                <tspan x="30.5" y="35.5">服务端</tspan>
            </text>
        </g>
        <path d="M.0,.0L.0,531.5" transform="translate(340.00,131.00)" id="shape4" stroke="#191919" fill="none"/>
        <path d="M.0,.0L.0,531.5" transform="translate(617.00,131.00)" id="shape5" stroke="#191919" fill="none"/>
        <g transform="translate(198.00,258.00)" id="shape6">
            <text xml:space="preserve" style="fill:#191919;font-family:微软雅黑;font-size:10.00pt">
                <tspan x="5.5" y="45.5">调用</tspan>
                <tspan x="31.5" style="fill:#ff0000;font-style:italic;font-weight:bold">connect()</tspan>
                <tspan x="93.5"> 后阻塞</tspan>
            </text>
        </g>
        <g transform="translate(340.00,306.00)" id="shape7">
            <path d="M.0,.0L268.1,46.0" stroke="#191919" fill="none"/>
            <path stroke-linecap="round" d="M268.6,43.0L274.0,47.0L267.6,48.9L268.6,43.0" stroke="#191919" fill="#191919" stroke-width="1"/>
            <rect width="35.0" x="118.8" y="13.7" fill="#ffffff" height="19.0"/>
            <text xml:space="preserve" style="fill:#191919;font-family:微软雅黑;font-size:10.00pt;font-weight:bold">
                <tspan x="118.8" y="28.7"> SYN </tspan>
            </text>
        </g>
        <g transform="translate(615.00,178.00)" id="shape8">
            <text xml:space="preserve" style="fill:#191919;font-family:微软雅黑;font-size:10.00pt">
                <tspan x="4.5" y="22.0">调用</tspan>
                <tspan x="30.5" style="fill:#ff0000;font-style:italic;font-weight:bold">listen()</tspan>
                <tspan x="75.5"> 监听端口</tspan>
            </text>
        </g>
        <g transform="translate(614.00,241.00)" id="shape9">
            <text xml:space="preserve" style="fill:#191919;font-family:微软雅黑;font-size:10.00pt">
                <tspan x="4.0" style="fill:#000000" y="21.0">调用</tspan>
                <tspan x="30.0" style="fill:#ff0000;font-style:italic;font-weight:bold">accept()</tspan>
                <tspan x="84.0"> 函数阻塞等待链接到来</tspan>
            </text>
        </g>
        <g transform="translate(614.00,390.00)" id="shape10">
            <path d="M.0,.0L-268.1,44.0" stroke="#191919" fill="none"/>
            <path stroke-linecap="round" d="M-267.6,47.0L-274.0,45.0L-268.6,41.1L-267.6,47.0" stroke="#191919" fill="#191919" stroke-width="1"/>
            <rect width="71.0" x="-175.5" y="13.7" fill="#ffffff" height="19.0"/>
            <text xml:space="preserve" style="fill:#191919;font-family:微软雅黑;font-size:10.00pt;font-weight:bold">
                <tspan x="-175.5" y="28.7">  SYN ACK </tspan>
            </text>
        </g>
        <g transform="translate(198.00,416.00)" id="shape11">
            <text xml:space="preserve" style="fill:#191919;font-family:微软雅黑;font-size:10.00pt">
                <tspan x="20.0" y="23.0">函数</tspan>
                <tspan x="46.0" style="fill:#ff0000;font-style:italic;font-weight:bold">connect()</tspan>
                <tspan x="108.0"> 返回</tspan>
            </text>
        </g>
        <g transform="translate(340.00,454.00)" id="shape12">
            <path d="M.0,.0L268.1,54.8" stroke="#191919" fill="none"/>
            <path stroke-linecap="round" d="M268.7,51.9L274.0,56.0L267.5,57.7L268.7,51.9" stroke="#191919" fill="#191919" stroke-width="1"/>
            <rect width="36.0" x="118.3" y="18.1" fill="#ffffff" height="19.0"/>
            <text xml:space="preserve" style="fill:#191919;font-family:微软雅黑;font-size:10.00pt;font-weight:bold">
                <tspan x="118.3" y="33.1"> ACK </tspan>
            </text>
        </g>
        <g transform="translate(616.00,499.00)" id="shape13">
            <text xml:space="preserve" style="fill:#191919;font-family:微软雅黑;font-size:10.00pt">
                <tspan x="4.0" style="fill:#000000" y="21.0">函数</tspan>
                <tspan x="30.0" style="fill:#ff0000;font-style:italic;font-weight:bold"> accept()</tspan>
                <tspan x="88.0"> 返回</tspan>
            </text>
        </g>
        <g transform="translate(220.00,305.00)" id="shape14">
            <text xml:space="preserve" style="fill:#0000ff;font-family:Microsoft YaHei;font-size:10.00pt;font-weight:bold">
                <tspan x="49.0" y="22.0">SYN_SENT</tspan>
            </text>
        </g>
        <g transform="translate(618.00,200.00)" id="shape15">
            <text xml:space="preserve" style="fill:#0000ff;font-family:Microsoft YaHei;font-size:10.00pt;font-weight:bold">
                <tspan x="4.0" y="22.0">LISTEN</tspan>
            </text>
        </g>
        <g transform="translate(614.00,357.00)" id="shape16">
            <text xml:space="preserve" style="fill:#0000ff;font-family:Microsoft YaHei;font-size:10.00pt;font-weight:bold">
                <tspan x="4.0" y="22.0">SYN_RCVD</tspan>
            </text>
        </g>
        <g transform="translate(220.00,439.00)" id="shape17">
            <text xml:space="preserve" style="fill:#0000ff;font-family:Microsoft YaHei;font-size:10.00pt;font-weight:bold">
                <tspan x="27.0" y="22.0">ESTABLISHED</tspan>
            </text>
        </g>
        <g transform="translate(618.00,525.50)" id="shape18">
            <text xml:space="preserve" style="fill:#0000ff;font-family:Microsoft YaHei;font-size:10.00pt;font-weight:bold">
                <tspan x="4.0" y="22.0">ESTABLISHED</tspan>
            </text>
        </g>
        <g transform="translate(258.00,586.00)" id="shape19">
            <text xml:space="preserve" style="fill:#ff0000;font-family:Microsoft YaHei;font-size:10.00pt;font-style:italic;font-weight:bold">
                <tspan x="34.0" y="22.5">write()</tspan>
            </text>
        </g>
        <g transform="translate(618.00,635.50)" id="shape20">
            <text xml:space="preserve" style="fill:#ff0000;font-family:Microsoft YaHei;font-size:10.00pt;font-style:italic;font-weight:bold">
                <tspan x="4.0" y="22.5">read()</tspan>
            </text>
        </g>
        <g transform="translate(340.00,605.00)" id="shape21">
            <path d="M.0,.0L268.1,46.0" stroke="#191919" fill="none"/>
            <path stroke-linecap="round" d="M268.6,43.0L274.0,47.0L267.6,48.9L268.6,43.0" stroke="#191919" fill="#191919" stroke-width="1"/>
            <rect width="52.0" x="110.3" y="13.7" fill="#ffffff" height="19.0"/>
            <text xml:space="preserve" style="fill:#191919;font-family:Microsoft YaHei;font-size:10.00pt">
                <tspan x="110.3" y="28.7">请求数据</tspan>
            </text>
        </g>
        <g transform="translate(222.00,127.00)" id="shape22">
            <text xml:space="preserve" style="fill:#0000ff;font-family:Microsoft YaHei;font-size:10.00pt;font-weight:bold">
                <tspan x="64.0" y="22.0">CLOSED</tspan>
            </text>
        </g>
        <g transform="translate(616.00,127.00)" id="shape23">
            <text xml:space="preserve" style="fill:#0000ff;font-family:Microsoft YaHei;font-size:10.00pt;font-weight:bold">
                <tspan x="4.0" y="22.0">CLOSED</tspan>
            </text>
        </g>
    </g>
</svg>
