<svg id="page100" xmlns:ev="http://www.w3.org/2001/xml-events" ed:name="页面-1" viewBox="0 0 495 241" ed:hSpacing="30" width="495" xmlns:xlink="http://www.w3.org/1999/xlink" height="241" xmlns="http://www.w3.org/2000/svg" xmlns:ed="https://www.edrawsoft.cn/xml/2017/SVGExtensions/" ed:vSpacing="30"><style type="text/css"><![CDATA[
g[ed\:togtopicid],g[ed\:hyperlink],g[ed\:comment],g[ed\:note] {cursor:pointer;}
g[id] {-moz-user-select: none;-ms-user-select: none;user-select: none;}
svg text::selection,svg tspan::selection{background-color: #4285f4;color: #ffffff;fill: #ffffff;}
.st8 {fill:#303030;font-family:Microsoft YaHei;font-size:6.75pt}
.st7 {fill:#303030;font-family:Microsoft YaHei;font-size:8.25pt}
.st6 {fill:#ffffff;font-family:Microsoft YaHei;font-size:8.25pt}
]]></style><defs/><rect x="0" fill="#ffffff" width="495" y="0" height="241"/><path stroke-linecap="round" id="103" fill="none" stroke="#454545" ed:parentid="101" d="M-4.4,41.6L27.1,41.6L27.1,-35.6C27.1,-38.9,29.8,-41.6,33.1,-41.6L58.6,-41.6" transform="matrix(1,0,0,1,135.89,76.63)" stroke-linejoin="round" stroke-width="3" ed:tosuperid="102"/><path stroke-linecap="round" id="105" fill="none" stroke="#454545" ed:parentid="101" d="M-4.4,0.1L27.1,0.1C27.1,-0,29.8,-0.1,33.1,-0.1L58.6,-0.1" transform="matrix(1,0,0,1,135.89,118.13)" stroke-linejoin="round" stroke-width="3" ed:tosuperid="104"/><path stroke-linecap="round" id="107" fill="none" stroke="#454545" ed:parentid="101" d="M-4.4,-41.6L27.1,-41.6L27.1,35.6C27.1,38.9,29.8,41.6,33.1,41.6L58.6,41.6" transform="matrix(1,0,0,1,135.89,159.88)" stroke-linejoin="round" stroke-width="3" ed:tosuperid="106"/><path stroke-linecap="round" id="109" fill="none" stroke="#454545" ed:parentid="102" d="M-13.5,0L0,0C0,0,2.7,0,6,0L13.5,0" transform="matrix(1,0,0,1,325.8,35)" stroke-linejoin="round" ed:tosuperid="108"/><path stroke-linecap="round" id="111" fill="none" stroke="#454545" ed:parentid="104" d="M-13.5,0L0,0C0,0,2.7,0,6,0L13.5,0" transform="matrix(1,0,0,1,301.07,118)" stroke-linejoin="round" ed:tosuperid="110"/><path stroke-linecap="round" id="113" fill="none" stroke="#454545" ed:parentid="110" d="M-13.5,12.8L0,12.8L0,-6.8C0,-10.1,2.7,-12.8,6,-12.8L13.5,-12.8" transform="matrix(1,0,0,1,400,105.25)" stroke-linejoin="round" ed:tosuperid="112"/><path stroke-linecap="round" id="115" fill="none" stroke="#454545" ed:parentid="110" d="M0,0C0,0,2.7,0,6,0L13.5,0" transform="matrix(1,0,0,1,400,118)" stroke-linejoin="round" ed:tosuperid="114"/><path stroke-linecap="round" id="117" fill="none" stroke="#454545" ed:parentid="110" d="M0,-12.8L0,6.8C0,10.1,2.7,12.8,6,12.8L13.5,12.8" transform="matrix(1,0,0,1,400,130.75)" stroke-linejoin="round" ed:tosuperid="116"/><path stroke-linecap="round" id="123" fill="none" stroke="#454545" ed:parentid="106" d="M-13.5,0L0,0C0,0,2.7,0,6,0L13.5,0" transform="matrix(1,0,0,1,349.32,201.5)" stroke-linejoin="round" ed:tosuperid="122"/><g id="101" ed:width="108.519" ed:height="45" transform="matrix(1,0,0,1,23,95.75)" ed:topictype="mainidea" ed:layout="rightmap"><path fill="#00af54" stroke="#00af54" d="M22.5,0L86,0C98.4,0,108.5,10.1,108.5,22.5C108.5,34.9,98.4,45,86,45L22.5,45C10.1,45,0,34.9,0,22.5C0,10.1,10.1,0,22.5,0z" stroke-linejoin="round" stroke-width="3"/><text class="st6"><tspan style="white-space:pre" x="21" y="25">Modsecurity</tspan></text></g><g id="102" ed:width="117.781" ed:parentid="101" ed:height="30" transform="matrix(1,0,0,1,194.52,20)"><path fill="#ffffff" stroke="#454545" d="M4,0L113.8,0C116.5,0,117.8,1.3,117.8,4L117.8,26C117.8,28.7,116.5,30,113.8,30L4,30C1.3,30,0,28.7,0,26L0,4C0,1.3,1.3,0,4,0z" stroke-linejoin="round" stroke-width="2"/><text class="st7"><tspan style="white-space:pre" x="18" y="17.5">libmodsecurity</tspan></text></g><g id="104" ed:width="93.04689999999999" ed:parentid="101" ed:height="30" transform="matrix(1,0,0,1,194.52,103)"><path fill="#ffffff" stroke="#454545" d="M4,0L89,0C91.7,0,93,1.3,93,4L93,26C93,28.7,91.7,30,89,30L4,30C1.3,30,0,28.7,0,26L0,4C0,1.3,1.3,0,4,0z" stroke-linejoin="round" stroke-width="2"/><text class="st7"><tspan style="white-space:pre" x="18" y="17.5">connector</tspan></text></g><g id="106" ed:width="141.297" ed:parentid="101" ed:height="30" transform="matrix(1,0,0,1,194.52,186.5)"><path fill="#ffffff" stroke="#454545" d="M4,0L137.3,0C140,0,141.3,1.3,141.3,4L141.3,26C141.3,28.7,140,30,137.3,30L4,30C1.3,30,0,28.7,0,26L0,4C0,1.3,1.3,0,4,0z" stroke-linejoin="round" stroke-width="2"/><text class="st7"><tspan style="white-space:pre" x="18" y="17.5">CRS（coreruleset）</tspan></text></g><g id="108" ed:width="91.98439999999999" ed:parentid="102" ed:height="15.5" transform="matrix(1,0,0,1,339.3,19.5)"><path fill="#ffffff" d="M0,0L92,0L92,15.5L0,15.5L0,0z"/><path fill="none" stroke="#454545" d="M0,15.5L92,15.5" stroke-linejoin="round"/><text class="st8"><tspan style="white-space:pre" x="8" y="9.7">Web攻击检测引擎</tspan></text></g><g id="110" ed:width="71.9375" ed:parentid="104" ed:height="15.5" transform="matrix(1,0,0,1,314.57,102.5)"><path fill="#ffffff" d="M0,0L71.9,0L71.9,15.5L0,15.5L0,0z"/><path fill="none" stroke="#454545" d="M0,15.5L71.9,15.5" stroke-linejoin="round"/><text class="st8"><tspan style="white-space:pre" x="8" y="9.7">Server连接器</tspan></text></g><g id="112" ed:width="52.2188" ed:parentid="110" ed:height="19" transform="matrix(1,0,0,1,413.5,83)"><path fill="#ffffff" stroke="#454545" d="M4,0L48.2,0C50.9,0,52.2,1.3,52.2,4L52.2,15C52.2,17.7,50.9,19,48.2,19L4,19C1.3,19,0,17.7,0,15L0,4C0,1.3,1.3,0,4,0z" stroke-linejoin="round"/><text class="st7"><tspan style="white-space:pre" x="9" y="12">Nginx</tspan></text></g><g id="114" ed:width="60.3438" ed:parentid="110" ed:height="19" transform="matrix(1,0,0,1,413.51,108.5)"><path fill="#ffffff" stroke="#454545" d="M4,0L56.3,0C59,0,60.3,1.3,60.3,4L60.3,15C60.3,17.7,59,19,56.3,19L4,19C1.3,19,0,17.7,0,15L0,4C0,1.3,1.3,0,4,0z" stroke-linejoin="round"/><text class="st7"><tspan style="white-space:pre" x="9" y="12">Apache</tspan></text></g><g id="116" ed:width="33.7813" ed:parentid="110" ed:height="19" transform="matrix(1,0,0,1,413.5,134)"><path fill="#ffffff" stroke="#454545" d="M4,0L29.8,0C32.5,0,33.8,1.3,33.8,4L33.8,15C33.8,17.7,32.5,19,29.8,19L4,19C1.3,19,0,17.7,0,15L0,4C0,1.3,1.3,0,4,0z" stroke-linejoin="round"/><text class="st7"><tspan style="white-space:pre" x="9" y="12">IIS</tspan></text></g><g id="122" ed:width="91.98439999999999" ed:parentid="106" ed:height="15.5" transform="matrix(1,0,0,1,362.82,186)"><path fill="#ffffff" d="M0,0L92,0L92,15.5L0,15.5L0,0z"/><path fill="none" stroke="#454545" d="M0,15.5L92,15.5" stroke-linejoin="round"/><text class="st8"><tspan style="white-space:pre" x="8" y="9.7">Web攻击检测规则</tspan></text></g></svg>